<svg xmlns="http://www.w3.org/2000/svg" viewBox="0 0 400 400">
  <defs><linearGradient id="bg" x2="1" y2="1"><stop stop-color="#f4edff"/><stop offset="1" stop-color="#d4b86c"/></linearGradient></defs>
  <rect width="400" height="400" rx="88" fill="url(#bg)"/>
  <g stroke="#8c6dac" stroke-width="6" stroke-linecap="round" opacity=".55"><path d="M65 46v64m0 0-13 30m13-30 13 30M335 58v52m0 0-13 30m13-30 13 30"/></g><g fill="#f8d36c"><circle cx="52" cy="145" r="9"/><circle cx="78" cy="145" r="9"/><circle cx="322" cy="145" r="9"/><circle cx="348" cy="145" r="9"/></g>
  <path d="m104 165 21-112 72 79m99 33-21-112-72 79" fill="#8a7697" stroke="#564866" stroke-width="10" stroke-linejoin="round"/>
  <path d="m128 82 38 49-49 17m155-66-38 49 49 17" fill="#c9aebe"/>
  <path d="M200 104c65 0 109 48 109 113 0 68-44 112-109 112S91 285 91 217c0-65 44-113 109-113Z" fill="#eee5e3"/>
  <path d="M99 189q31-63 78-76l8 87-58 45Zm202 0q-31-63-78-76l-8 87 58 45Z" fill="#9b84a4" opacity=".9"/>
  <ellipse cx="156" cy="211" rx="18" ry="22" fill="#76549b"/><ellipse cx="244" cy="211" rx="18" ry="22" fill="#76549b"/><circle cx="150" cy="204" r="5" fill="#fff"/><circle cx="238" cy="204" r="5" fill="#fff"/>
  <ellipse cx="200" cy="253" rx="51" ry="38" fill="#f8eff0"/><path d="m187 242 13 12 13-12-13-8Z" fill="#a96e7d"/><path d="M170 271q30 23 60 0" fill="none" stroke="#53455f" stroke-width="8" stroke-linecap="round"/>
  <path d="M126 315q74-32 148 0" fill="none" stroke="#4a78a2" stroke-width="17" stroke-linecap="round"/>
  <g transform="translate(200 326)"><path d="M-22 14h44L12-19h-24Z" fill="#f4c75d" stroke="#765419" stroke-width="6"/><circle cy="20" r="8" fill="#d58c30"/></g>
</svg>
