<svg xmlns="http://www.w3.org/2000/svg" viewBox="0 0 400 400">
  <defs><linearGradient id="bg" x2="1" y2="1"><stop stop-color="#dcecf3"/><stop offset="1" stop-color="#b8ddd7"/></linearGradient><linearGradient id="fur" x2="1" y2="1"><stop stop-color="#9a6a4f"/><stop offset="1" stop-color="#593f38"/></linearGradient></defs>
  <rect width="400" height="400" rx="88" fill="url(#bg)"/>
  <g fill="none" stroke="#66a9bd" stroke-width="9" stroke-linecap="round" opacity=".75"><path d="M29 311q67-36 134 0t137 0 72-5"/><path d="M52 346q55-25 112 0t116 0 67-4"/></g>
  <path d="M106 276Q54 211 95 143q50-81 153-44 92 33 84 126-6 76-82 104-85 31-144-53Z" fill="url(#fur)" stroke="#4e3b37" stroke-width="11"/>
  <path d="M104 277Q38 283 30 235q65-27 107 0" fill="#68483e" stroke="#4e3b37" stroke-width="10"/>
  <ellipse cx="245" cy="165" rx="72" ry="62" fill="#a97758"/>
  <circle cx="208" cy="115" r="23" fill="#65463d" stroke="#4e3b37" stroke-width="8"/><circle cx="291" cy="124" r="23" fill="#65463d" stroke="#4e3b37" stroke-width="8"/>
  <ellipse cx="259" cy="188" rx="47" ry="38" fill="#e0b98f"/>
  <circle cx="231" cy="157" r="12" fill="#282932"/><circle cx="281" cy="160" r="12" fill="#282932"/><circle cx="227" cy="153" r="4" fill="#fff"/><circle cx="277" cy="156" r="4" fill="#fff"/>
  <path d="m249 179 12 9 13-9-13-8Z" fill="#4a3430"/><path d="M242 203q19 17 39 0" fill="none" stroke="#68483e" stroke-width="7" stroke-linecap="round"/>
  <g stroke="#76564a" stroke-width="4" stroke-linecap="round"><path d="M222 187h-51"/><path d="m223 196-49 12"/><path d="M296 190h51"/><path d="m296 199 47 15"/></g>
  <path d="M160 254q35 26 61 2" fill="none" stroke="#e8c79d" stroke-width="22" stroke-linecap="round"/>
  <ellipse cx="315" cy="319" rx="31" ry="12" fill="#bfa682" stroke="#806d58" stroke-width="6"/>
</svg>
