<svg xmlns="http://www.w3.org/2000/svg" viewBox="0 0 512 512" role="img" aria-labelledby="title description">
  <title id="title">Number Nook maskable app icon</title>
  <desc id="description">A cheerful golden cat with a math sparkle on a full purple background.</desc>
  <defs>
    <linearGradient id="background" x1="40" y1="32" x2="472" y2="486" gradientUnits="userSpaceOnUse">
      <stop stop-color="#7957ff"/>
      <stop offset="0.55" stop-color="#5433ed"/>
      <stop offset="1" stop-color="#3420a8"/>
    </linearGradient>
    <linearGradient id="fur" x1="180" y1="134" x2="327" y2="408" gradientUnits="userSpaceOnUse">
      <stop stop-color="#ffe7a6"/>
      <stop offset="0.62" stop-color="#ffc96f"/>
      <stop offset="1" stop-color="#f4a84f"/>
    </linearGradient>
    <filter id="shadow" x="-30%" y="-30%" width="160%" height="170%">
      <feDropShadow dx="0" dy="10" stdDeviation="10" flood-color="#21126f" flood-opacity="0.28"/>
    </filter>
  </defs>

  <rect width="512" height="512" fill="url(#background)"/>

  <g transform="translate(-24 -12)" filter="url(#shadow)">
    <path d="M148 237 141 111l92 62c15-4 31-6 47-6s32 2 47 6l92-62-7 126c18 27 28 60 28 95 0 85-67 137-160 137s-160-52-160-137c0-35 10-68 28-95Z" fill="url(#fur)" stroke="#fff3cf" stroke-linejoin="round" stroke-width="12"/>
    <path d="m161 142 57 40-64 30Z" fill="#f59b8f" opacity="0.72"/>
    <path d="m399 142-57 40 64 30Z" fill="#f59b8f" opacity="0.72"/>
    <path d="M194 217c14-9 32-9 48 0M318 217c14-9 32-9 48 0" fill="none" stroke="#d88a3d" stroke-linecap="round" stroke-width="10" opacity="0.75"/>
    <ellipse cx="218" cy="267" rx="30" ry="35" fill="#392b55"/>
    <ellipse cx="342" cy="267" rx="30" ry="35" fill="#392b55"/>
    <ellipse cx="225" cy="256" rx="10" ry="13" fill="#fff"/>
    <ellipse cx="349" cy="256" rx="10" ry="13" fill="#fff"/>
    <circle cx="208" cy="281" r="6" fill="#6e58a0"/>
    <circle cx="332" cy="281" r="6" fill="#6e58a0"/>
    <ellipse cx="245" cy="326" rx="47" ry="37" fill="#fff0cb"/>
    <ellipse cx="315" cy="326" rx="47" ry="37" fill="#fff0cb"/>
    <path d="m280 303-18 14c8 12 28 12 36 0Z" fill="#e66c80" stroke="#a8425e" stroke-linejoin="round" stroke-width="5"/>
    <path d="M280 325v9m0 0c-10 14-24 18-39 11m39-11c10 14 24 18 39 11" fill="none" stroke="#5a3554" stroke-linecap="round" stroke-width="7"/>
    <path d="M205 324h-72m75 20-67 17m214-37h72m-75 20 67 17" fill="none" stroke="#7c5539" stroke-linecap="round" stroke-width="5" opacity="0.72"/>
    <path d="M198 393c23 13 50 20 82 20s59-7 82-20" fill="none" stroke="#6a43df" stroke-linecap="round" stroke-width="21"/>
    <circle cx="280" cy="413" r="20" fill="#ffdd76" stroke="#fff1bc" stroke-width="5"/>
    <path d="M271 416c0-10 18-10 18 0 0 8-9 12-9 12s-9-4-9-12Z" fill="#8b5c1b"/>
  </g>

  <g transform="translate(376 112)">
    <circle r="40" fill="#ffdf78" stroke="#fff4bd" stroke-width="7"/>
    <path d="M0-18v36M-18 0h36" fill="none" stroke="#3f25cc" stroke-linecap="round" stroke-width="10"/>
  </g>
</svg>
